<?xml version="1.0" encoding="UTF-8"?>
<svg height="128px" viewBox="0 0 128 128" width="128px" xmlns="http://www.w3.org/2000/svg" xmlns:xlink="http://www.w3.org/1999/xlink">
    <linearGradient id="a" gradientUnits="userSpaceOnUse" x1="12.000007" x2="116.000007" y1="112" y2="112">
        <stop offset="0" stop-color="#9e6f2d" stop-opacity="0"/>
        <stop offset="0.077538" stop-color="#9e6f2d" stop-opacity="0.937255"/>
        <stop offset="0.925534" stop-color="#9e6f2d"/>
        <stop offset="1" stop-color="#9e6f2d" stop-opacity="0"/>
    </linearGradient>
    <clipPath id="b">
        <rect height="128" width="128"/>
    </clipPath>
    <clipPath id="c">
        <rect height="128" width="128"/>
    </clipPath>
    <filter id="d" height="100%" width="100%" x="0%" y="0%">
        <feColorMatrix in="SourceGraphic" type="matrix" values="0 0 0 0 1 0 0 0 0 1 0 0 0 0 1 0 0 0 1 0"/>
    </filter>
    <mask id="e">
        <g clip-path="url(#c)" filter="url(#d)">
            <g clip-path="url(#b)">
                <path d="m 20 12 h 88 c 4.417969 0 8 3.582031 8 8 v 88 c 0 4.417969 -3.582031 8 -8 8 h -88 c -4.417969 0 -8 -3.582031 -8 -8 v -88 c 0 -4.417969 3.582031 -8 8 -8 z m 0 0" fill="#f8a939"/>
                <path d="m 70.746094 64.953125 c 3.777344 3.78125 3.777344 9.90625 0 13.6875 c -3.78125 3.78125 -9.910156 3.78125 -13.6875 0 c -3.78125 -3.78125 -3.78125 -9.90625 0 -13.6875 c 3.777344 -3.78125 9.90625 -3.78125 13.6875 0 z m 0 0" fill-opacity="0.301961"/>
                <path d="m 63.902344 43.726562 v 10.660157 c 5.992187 0 10.003906 1.359375 14.65625 3.929687 c 4.648437 2.570313 10.300781 -0.042968 12.71875 -3.402344 c -6.054688 -9.410156 -22.046875 -11.1875 -27.375 -11.1875 z m 0 0" fill-opacity="0.301961"/>
                <path d="m 63.902344 36.617188 c 15.859375 -0.046876 21.238281 3.40625 28.011718 8.117187 c 6.773438 4.714844 13.046876 -3.507813 13.046876 -3.507813 c -10.890626 -10.886718 -21.222657 -17 -41.0625 -17 z m 0 0" fill-opacity="0.301961"/>
                <path d="m 63.898438 43.726562 v 10.660157 c -5.992188 0 -10.007813 1.359375 -14.65625 3.929687 c -4.648438 2.570313 -10.300782 -0.042968 -12.71875 -3.402344 c 6.054687 -9.410156 22.046874 -11.1875 27.375 -11.1875 z m 0 0" fill-opacity="0.301961"/>
                <path d="m 63.898438 36.617188 c -15.859376 -0.046876 -21.238282 3.40625 -28.011719 8.117187 c -6.777344 4.714844 -13.050781 -3.507813 -13.050781 -3.507813 c 10.894531 -10.886718 21.226562 -17 41.066406 -17 z m 0 0" fill-opacity="0.301961"/>
                <path d="m 63.902344 100.226562 v -10.660156 c 5.992187 0 10.003906 -1.359375 14.65625 -3.929687 c 4.648437 -2.570313 10.300781 0.042969 12.71875 3.402343 c -6.054688 9.410157 -22.046875 11.1875 -27.375 11.1875 z m 0 0" fill-opacity="0.301961"/>
                <path d="m 63.898438 100.226562 v -10.660156 c -5.992188 0 -10.007813 -1.359375 -14.65625 -3.929687 c -4.648438 -2.570313 -10.300782 0.042969 -12.71875 3.402343 c 6.054687 9.410157 22.046874 11.1875 27.375 11.1875 z m 0 0" fill-opacity="0.301961"/>
                <path d="m 70.84375 62.726562 c 3.78125 3.78125 3.78125 9.910157 0 13.6875 c -3.78125 3.78125 -9.90625 3.78125 -13.6875 0 c -3.78125 -3.777343 -3.78125 -9.90625 0 -13.6875 c 3.78125 -3.777343 9.90625 -3.777343 13.6875 0 z m 0 0" fill="#ffffff"/>
                <path d="m 64 41.5 v 10.660156 c 5.992188 0 10.007812 1.359375 14.65625 3.929688 c 4.648438 2.570312 10.300781 -0.042969 12.71875 -3.402344 c -6.054688 -9.410156 -22.042969 -11.1875 -27.375 -11.1875 z m 0 0" fill="#ffffff"/>
                <path d="m 64 34.394531 c 15.863281 -0.046875 21.238281 3.402344 28.011719 8.117188 c 6.777343 4.710937 13.050781 -3.511719 13.050781 -3.511719 c -10.890625 -10.886719 -21.222656 -17 -41.0625 -17 z m 0 0" fill="#ffffff"/>
                <path d="m 64 41.5 v 10.660156 c -5.992188 0 -10.007812 1.359375 -14.65625 3.929688 c -4.652344 2.570312 -10.304688 -0.042969 -12.71875 -3.402344 c 6.050781 -9.410156 22.042969 -11.1875 27.375 -11.1875 z m 0 0" fill="#ffffff"/>
                <path d="m 64 34.394531 c -15.863281 -0.046875 -21.242188 3.402344 -28.015625 8.117188 c -6.773437 4.710937 -13.046875 -3.511719 -13.046875 -3.511719 c 10.890625 -10.886719 21.222656 -17 41.0625 -17 z m 0 0" fill="#ffffff"/>
                <path d="m 64 98 v -10.660156 c 5.992188 0 10.007812 -1.359375 14.65625 -3.929688 c 4.648438 -2.570312 10.300781 0.042969 12.71875 3.402344 c -6.054688 9.410156 -22.042969 11.1875 -27.375 11.1875 z m 0 0" fill="#ffffff"/>
                <path d="m 64 98 v -10.660156 c -5.992188 0 -10.007812 -1.359375 -14.65625 -3.929688 c -4.652344 -2.570312 -10.304688 0.042969 -12.71875 3.402344 c 6.050781 9.410156 22.042969 11.1875 27.375 11.1875 z m 0 0" fill="#ffffff"/>
                <path d="m 12 100 v 8 c 0 4.433594 3.570312 8 8.003906 8 h 87.996094 c 4.433594 0 8 -3.566406 8 -8 v -8 c 0 4.433594 -3.566406 8 -8 8 h -87.996094 c -4.433594 0 -8.003906 -3.566406 -8.003906 -8 z m 0 0" fill="url(#a)"/>
            </g>
        </g>
    </mask>
    <mask id="f">
        <g filter="url(#d)">
            <rect fill-opacity="0.8" height="128" width="128"/>
        </g>
    </mask>
    <linearGradient id="g" gradientTransform="matrix(0 0.37 -0.98462 0 295.38501 -30.360001)" gradientUnits="userSpaceOnUse" x1="300" x2="428" y1="235" y2="235">
        <stop offset="0" stop-color="#f9f06b"/>
        <stop offset="1" stop-color="#f5c211"/>
    </linearGradient>
    <clipPath id="h">
        <rect height="128" width="128"/>
    </clipPath>
    <clipPath id="i">
        <rect height="128" width="128"/>
    </clipPath>
    <path d="m 20 12 h 88 c 4.417969 0 8 3.582031 8 8 v 88 c 0 4.417969 -3.582031 8 -8 8 h -88 c -4.417969 0 -8 -3.582031 -8 -8 v -88 c 0 -4.417969 3.582031 -8 8 -8 z m 0 0" fill="#f8a939"/>
    <g fill-opacity="0.301961">
        <path d="m 70.746094 64.953125 c 3.777344 3.78125 3.777344 9.90625 0 13.6875 c -3.78125 3.78125 -9.910156 3.78125 -13.6875 0 c -3.78125 -3.78125 -3.78125 -9.90625 0 -13.6875 c 3.777344 -3.78125 9.90625 -3.78125 13.6875 0 z m 0 0"/>
        <path d="m 63.902344 43.726562 v 10.660157 c 5.992187 0 10.003906 1.359375 14.65625 3.929687 c 4.648437 2.570313 10.300781 -0.042968 12.71875 -3.402344 c -6.054688 -9.410156 -22.046875 -11.1875 -27.375 -11.1875 z m 0 0"/>
        <path d="m 63.902344 36.617188 c 15.859375 -0.046876 21.238281 3.40625 28.011718 8.117187 c 6.773438 4.714844 13.046876 -3.507813 13.046876 -3.507813 c -10.890626 -10.886718 -21.222657 -17 -41.0625 -17 z m 0 0"/>
        <path d="m 63.898438 43.726562 v 10.660157 c -5.992188 0 -10.007813 1.359375 -14.65625 3.929687 c -4.648438 2.570313 -10.300782 -0.042968 -12.71875 -3.402344 c 6.054687 -9.410156 22.046874 -11.1875 27.375 -11.1875 z m 0 0"/>
        <path d="m 63.898438 36.617188 c -15.859376 -0.046876 -21.238282 3.40625 -28.011719 8.117187 c -6.777344 4.714844 -13.050781 -3.507813 -13.050781 -3.507813 c 10.894531 -10.886718 21.226562 -17 41.066406 -17 z m 0 0"/>
        <path d="m 63.902344 100.226562 v -10.660156 c 5.992187 0 10.003906 -1.359375 14.65625 -3.929687 c 4.648437 -2.570313 10.300781 0.042969 12.71875 3.402343 c -6.054688 9.410157 -22.046875 11.1875 -27.375 11.1875 z m 0 0"/>
        <path d="m 63.898438 100.226562 v -10.660156 c -5.992188 0 -10.007813 -1.359375 -14.65625 -3.929687 c -4.648438 -2.570313 -10.300782 0.042969 -12.71875 3.402343 c 6.054687 9.410157 22.046874 11.1875 27.375 11.1875 z m 0 0"/>
    </g>
    <path d="m 70.84375 62.726562 c 3.78125 3.78125 3.78125 9.910157 0 13.6875 c -3.78125 3.78125 -9.90625 3.78125 -13.6875 0 c -3.78125 -3.777343 -3.78125 -9.90625 0 -13.6875 c 3.78125 -3.777343 9.90625 -3.777343 13.6875 0 z m 0 0" fill="#ffffff"/>
    <path d="m 64 41.5 v 10.660156 c 5.992188 0 10.007812 1.359375 14.65625 3.929688 c 4.648438 2.570312 10.300781 -0.042969 12.71875 -3.402344 c -6.054688 -9.410156 -22.042969 -11.1875 -27.375 -11.1875 z m 0 0" fill="#ffffff"/>
    <path d="m 64 34.394531 c 15.863281 -0.046875 21.238281 3.402344 28.011719 8.117188 c 6.777343 4.710937 13.050781 -3.511719 13.050781 -3.511719 c -10.890625 -10.886719 -21.222656 -17 -41.0625 -17 z m 0 0" fill="#ffffff"/>
    <path d="m 64 41.5 v 10.660156 c -5.992188 0 -10.007812 1.359375 -14.65625 3.929688 c -4.652344 2.570312 -10.304688 -0.042969 -12.71875 -3.402344 c 6.050781 -9.410156 22.042969 -11.1875 27.375 -11.1875 z m 0 0" fill="#ffffff"/>
    <path d="m 64 34.394531 c -15.863281 -0.046875 -21.242188 3.402344 -28.015625 8.117188 c -6.773437 4.710937 -13.046875 -3.511719 -13.046875 -3.511719 c 10.890625 -10.886719 21.222656 -17 41.0625 -17 z m 0 0" fill="#ffffff"/>
    <path d="m 64 98 v -10.660156 c 5.992188 0 10.007812 -1.359375 14.65625 -3.929688 c 4.648438 -2.570312 10.300781 0.042969 12.71875 3.402344 c -6.054688 9.410156 -22.042969 11.1875 -27.375 11.1875 z m 0 0" fill="#ffffff"/>
    <path d="m 64 98 v -10.660156 c -5.992188 0 -10.007812 -1.359375 -14.65625 -3.929688 c -4.652344 -2.570312 -10.304688 0.042969 -12.71875 3.402344 c 6.050781 9.410156 22.042969 11.1875 27.375 11.1875 z m 0 0" fill="#ffffff"/>
    <path d="m 12 100 v 8 c 0 4.433594 3.570312 8 8.003906 8 h 87.996094 c 4.433594 0 8 -3.566406 8 -8 v -8 c 0 4.433594 -3.566406 8 -8 8 h -87.996094 c -4.433594 0 -8.003906 -3.566406 -8.003906 -8 z m 0 0" fill="url(#a)"/>
    <g clip-path="url(#i)" mask="url(#e)">
        <g clip-path="url(#h)" mask="url(#f)">
            <path d="m 128 80.640625 v 47.359375 h -128 v -47.359375 z m 0 0" fill="url(#g)"/>
            <path d="m 13.308594 80.640625 l 47.355468 47.359375 h 21.214844 l -47.359375 -47.359375 z m 42.421875 0 l 47.363281 47.359375 h 21.214844 l -47.363282 -47.359375 z m 42.429687 0 l 29.839844 29.839844 v -21.210938 l -8.628906 -8.628906 z m -98.160156 7.90625 v 21.214844 l 18.238281 18.238281 h 21.214844 z m 0 0"/>
        </g>
    </g>
</svg>
