<?xml version="1.0" encoding="UTF-8" standalone="no"?>
<!-- Created with Inkscape (http://www.inkscape.org/) -->

<svg
   width="128"
   height="128"
   viewBox="0 0 33.866666 33.866668"
   version="1.1"
   id="svg5"
   inkscape:version="1.1.2 (0a00cf5339, 2022-02-04)"
   sodipodi:docname="io.github.schneegans.BingeRSS.svg"
   xmlns:inkscape="http://www.inkscape.org/namespaces/inkscape"
   xmlns:sodipodi="http://sodipodi.sourceforge.net/DTD/sodipodi-0.dtd"
   xmlns:xlink="http://www.w3.org/1999/xlink"
   xmlns="http://www.w3.org/2000/svg"
   xmlns:svg="http://www.w3.org/2000/svg">
  <sodipodi:namedview
     id="namedview7"
     pagecolor="#ffffff"
     bordercolor="#666666"
     borderopacity="1.0"
     inkscape:pageshadow="2"
     inkscape:pageopacity="0.0"
     inkscape:pagecheckerboard="0"
     inkscape:document-units="mm"
     showgrid="true"
     units="px"
     width="128px"
     showguides="false"
     inkscape:guide-bbox="true"
     inkscape:snap-object-midpoints="true"
     inkscape:snap-global="true"
     inkscape:zoom="4.7789435"
     inkscape:cx="31.806193"
     inkscape:cy="42.373382"
     inkscape:window-width="1920"
     inkscape:window-height="1136"
     inkscape:window-x="0"
     inkscape:window-y="0"
     inkscape:window-maximized="1"
     inkscape:current-layer="layer1"
     inkscape:lockguides="false">
    <sodipodi:guide
       position="16.933333,30.691667"
       orientation="1,0"
       id="guide1049"
       inkscape:locked="false" />
    <inkscape:grid
       type="xygrid"
       id="grid1051"
       spacingx="0.52916667"
       spacingy="0.52916667"
       empspacing="8" />
    <sodipodi:guide
       position="29.633332,16.933335"
       orientation="0,-1"
       id="guide1053"
       inkscape:locked="false" />
  </sodipodi:namedview>
  <defs
     id="defs2">
    <linearGradient
       inkscape:collect="always"
       id="linearGradient1470">
      <stop
         style="stop-color:#9e6f2d;stop-opacity:0"
         offset="0"
         id="stop1466" />
      <stop
         style="stop-color:#9e6f2d;stop-opacity:0.93711543"
         offset="0.07753803"
         id="stop1700" />
      <stop
         style="stop-color:#9e6f2d;stop-opacity:1"
         offset="0.92553383"
         id="stop1830" />
      <stop
         style="stop-color:#9e6f2d;stop-opacity:0;"
         offset="1"
         id="stop1468" />
    </linearGradient>
    <linearGradient
       inkscape:collect="always"
       xlink:href="#linearGradient1470"
       id="linearGradient1472"
       x1="12"
       y1="112"
       x2="116"
       y2="112"
       gradientUnits="userSpaceOnUse" />
  </defs>
  <g
     inkscape:label="Layer 1"
     inkscape:groupmode="layer"
     id="layer1">
    <rect
       style="fill:#f8a939;fill-opacity:1;stroke-width:0.33556;-inkscape-stroke:none;stop-color:#000000"
       id="rect1083"
       width="27.517"
       height="27.516668"
       x="3.175"
       y="3.175"
       ry="2.1166668"
       rx="2.1169991" />
    <g
       id="g1309"
       transform="matrix(0.88839643,0,0,0.88839643,1.8635442,2.0722291)"
       style="fill:#000000;fill-opacity:0.30021566;stroke-width:1.12563">
      <path
         style="fill:#000000;fill-opacity:0.30021566;stroke-width:0.297821"
         d="m 18.971528,17.011797 a 2.882433,2.882433 0 0 1 0,4.076405 2.882433,2.882433 0 0 1 -4.076404,0 2.882433,2.882433 0 0 1 0,-4.076405 2.882433,2.882433 0 0 1 4.076404,0 z"
         id="path1295" />
      <path
         style="fill:#000000;fill-opacity:0.30021566;stroke-width:0.297821"
         d="m 16.933333,10.689926 v 3.175 c 1.784737,0 2.980333,0.404557 4.36497,1.170073 1.384637,0.765516 3.068262,-0.01271 3.787832,-1.013091 -1.802802,-2.802816 -6.565302,-3.331982 -8.152802,-3.331982 z"
         id="path1297"
         inkscape:transform-center-x="0.12101272"
         inkscape:transform-center-y="-3.6572356"
         sodipodi:nodetypes="cczcc" />
      <path
         style="fill:#000000;fill-opacity:0.30021566;stroke-width:0.297821"
         d="m 16.933333,8.5732588 c 4.724114,-0.014026 6.325424,1.0138529 8.343043,2.4176202 2.01762,1.403767 3.886109,-1.0452903 3.886109,-1.0452903 C 25.918668,6.7029037 22.841709,4.882252 16.932944,4.882252 Z"
         id="path1299"
         sodipodi:nodetypes="czccc" />
      <path
         style="fill:#000000;fill-opacity:0.30021566;stroke-width:0.297821"
         d="m 16.932944,10.689926 v 3.175 c -1.784737,0 -2.980333,0.404557 -4.36497,1.170073 -1.384637,0.765516 -3.0682615,-0.01271 -3.7878315,-1.013091 1.8028015,-2.802816 6.5653015,-3.331982 8.1528015,-3.331982 z"
         id="path1301"
         inkscape:transform-center-x="-0.12101272"
         inkscape:transform-center-y="-3.6572356"
         sodipodi:nodetypes="cczcc" />
      <path
         style="fill:#000000;fill-opacity:0.30021566;stroke-width:0.297821"
         d="M 16.932944,8.5732588 C 12.20883,8.5592328 10.60752,9.5871117 8.5899015,10.990879 6.5722815,12.394646 4.7037925,9.9455887 4.7037925,9.9455887 7.9476095,6.7029037 11.024568,4.882252 16.933333,4.882252 Z"
         id="path1303"
         sodipodi:nodetypes="czccc" />
      <path
         style="fill:#000000;fill-opacity:0.30021566;stroke-width:0.297821"
         d="m 16.933333,27.516667 v -3.175 c 1.784737,0 2.980333,-0.404557 4.36497,-1.170073 1.384637,-0.765516 3.068262,0.01271 3.787832,1.013091 -1.802802,2.802816 -6.565302,3.331982 -8.152802,3.331982 z"
         id="path1305"
         inkscape:transform-center-x="0.12101272"
         inkscape:transform-center-y="3.6572361"
         sodipodi:nodetypes="cczcc" />
      <path
         style="fill:#000000;fill-opacity:0.30021566;stroke-width:0.297821"
         d="m 16.932944,27.516667 v -3.175 c -1.784737,0 -2.980333,-0.404557 -4.36497,-1.170073 -1.384637,-0.765516 -3.0682615,0.01271 -3.7878315,1.013091 1.8028015,2.802816 6.5653015,3.331982 8.1528015,3.331982 z"
         id="path1307"
         inkscape:transform-center-x="-0.12101272"
         inkscape:transform-center-y="3.6572361"
         sodipodi:nodetypes="cczcc" />
    </g>
    <g
       id="g1434"
       transform="matrix(0.88839643,0,0,0.88839643,1.8897989,1.4834581)"
       style="fill:#ffffff;fill-opacity:1;stroke-width:1.12563">
      <path
         style="fill:#ffffff;fill-opacity:1;stroke-width:0.297821"
         d="m 18.971528,17.011797 a 2.882433,2.882433 0 0 1 0,4.076405 2.882433,2.882433 0 0 1 -4.076404,0 2.882433,2.882433 0 0 1 0,-4.076405 2.882433,2.882433 0 0 1 4.076404,0 z"
         id="path824" />
      <path
         style="fill:#ffffff;fill-opacity:1;stroke-width:0.297821"
         d="m 16.933333,10.689926 v 3.175 c 1.784737,0 2.980333,0.404557 4.36497,1.170073 1.384637,0.765516 3.068262,-0.01271 3.787832,-1.013091 -1.802802,-2.802816 -6.565302,-3.331982 -8.152802,-3.331982 z"
         id="path826"
         inkscape:transform-center-x="0.12101272"
         inkscape:transform-center-y="-3.6572356"
         sodipodi:nodetypes="cczcc" />
      <path
         style="fill:#ffffff;fill-opacity:1;stroke-width:0.297821"
         d="m 16.933333,8.5732588 c 4.724114,-0.014026 6.325424,1.0138529 8.343043,2.4176202 2.01762,1.403767 3.886109,-1.0452903 3.886109,-1.0452903 C 25.918668,6.7029037 22.841709,4.882252 16.932944,4.882252 Z"
         id="path828"
         sodipodi:nodetypes="czccc" />
      <path
         style="fill:#ffffff;fill-opacity:1;stroke-width:0.297821"
         d="m 16.932944,10.689926 v 3.175 c -1.784737,0 -2.980333,0.404557 -4.36497,1.170073 -1.384637,0.765516 -3.0682615,-0.01271 -3.7878315,-1.013091 1.8028015,-2.802816 6.5653015,-3.331982 8.1528015,-3.331982 z"
         id="path4628"
         inkscape:transform-center-x="-0.12101272"
         inkscape:transform-center-y="-3.6572356"
         sodipodi:nodetypes="cczcc" />
      <path
         style="fill:#ffffff;fill-opacity:1;stroke-width:0.297821"
         d="M 16.932944,8.5732588 C 12.20883,8.5592328 10.60752,9.5871117 8.5899015,10.990879 6.5722815,12.394646 4.7037925,9.9455887 4.7037925,9.9455887 7.9476095,6.7029037 11.024568,4.882252 16.933333,4.882252 Z"
         id="path4630"
         sodipodi:nodetypes="czccc" />
      <path
         style="fill:#ffffff;fill-opacity:1;stroke-width:0.297821"
         d="m 16.933333,27.516667 v -3.175 c 1.784737,0 2.980333,-0.404557 4.36497,-1.170073 1.384637,-0.765516 3.068262,0.01271 3.787832,1.013091 -1.802802,2.802816 -6.565302,3.331982 -8.152802,3.331982 z"
         id="path4632"
         inkscape:transform-center-x="0.12101272"
         inkscape:transform-center-y="3.6572361"
         sodipodi:nodetypes="cczcc" />
      <path
         style="fill:#ffffff;fill-opacity:1;stroke-width:0.297821"
         d="m 16.932944,27.516667 v -3.175 c -1.784737,0 -2.980333,-0.404557 -4.36497,-1.170073 -1.384637,-0.765516 -3.0682615,0.01271 -3.7878315,1.013091 1.8028015,2.802816 6.5653015,3.331982 8.1528015,3.331982 z"
         id="path4634"
         inkscape:transform-center-x="-0.12101272"
         inkscape:transform-center-y="3.6572361"
         sodipodi:nodetypes="cczcc" />
    </g>
    <path
       id="rect1334"
       style="fill:url(#linearGradient1472);fill-opacity:1;stroke-width:1.26826;-inkscape-stroke:none;stop-color:#000000"
       d="M 12 100 L 12 108 C 12 112.432 15.569257 116 20.001953 116 L 108 116 C 112.4327 116 116.00195 112.432 116.00195 108 L 116.00195 100 C 116.00195 104.432 112.4327 108 108 108 L 20.001953 108 C 15.569257 108 12 104.432 12 100 z "
       transform="scale(0.26458333)" />
  </g>
</svg>
